HIERARCHY
ROOT Hips
{
   OFFSET 0.00000 0.00000 0.00000
   CHANNELS 6 Xposition Yposition Zposition Zrotation Xrotation Yrotation
   JOINT Spine
   {
      OFFSET 0.000000 9.512400 0.000000
      CHANNELS 3 Zrotation Xrotation Yrotation
      JOINT Spine1
      {
         OFFSET -0.000000 20.525920 0.102128
         CHANNELS 3 Zrotation Xrotation Yrotation
         JOINT HEad
         {
            OFFSET 0.000000 6.987328 0.009072
            CHANNELS 3 Zrotation Xrotation Yrotation
            End Site
            {
               OFFSET -0.232000 10.219360 2.011160
            }
         }
         JOINT LeftShoulder1
         {
            OFFSET 7.192000 -0.289800 -0.176000
            CHANNELS 3 Zrotation Xrotation Yrotation
            JOINT LeftArm
            {
               OFFSET 8.226160 -0.002704 0.257696
               CHANNELS 3 Zrotation Xrotation Yrotation
               JOINT LeftForeArm
               {
                  OFFSET 26.213519 0.079312 -1.139472
                  CHANNELS 3 Zrotation Xrotation Yrotation
                  JOINT LeftHand
                  {
                     OFFSET 22.051441 0.068288 0.817728
                     CHANNELS 3 Zrotation Xrotation Yrotation
                     End Site
                     {
                        OFFSET 13.395442 -0.480000 1.202328
                     }
                  }
               }
            }
         }
         JOINT RightShoulder
         {
            OFFSET -7.192000 -0.289800 -0.176000
            CHANNELS 3 Zrotation Xrotation Yrotation
            JOINT RightArm
            {
               OFFSET -8.226160 -0.002704 0.257696
               CHANNELS 3 Zrotation Xrotation Yrotation
               JOINT RightForeArm
               {
                  OFFSET -26.317679 0.079312 -1.139472
                  CHANNELS 3 Zrotation Xrotation Yrotation
                  JOINT RightHand
                  {
                     OFFSET -21.993682 0.068288 0.817728
                     CHANNELS 3 Zrotation Xrotation Yrotation
                     End Site
                     {
                        OFFSET -13.304962 -0.480000 1.202328
                     }
                  }
               }
            }
         }
      }
   }
   JOINT LeftUpLeg
   {
      OFFSET 7.156640 -6.933656 0.081320
      CHANNELS 3 Zrotation Xrotation Yrotation
      JOINT LeftLeg
      {
         OFFSET 0.000000 -35.538158 1.098160
         CHANNELS 3 Zrotation Xrotation Yrotation
         JOINT LeftFoot
         {
            OFFSET -0.202840 -33.673920 -1.168472
            CHANNELS 3 Zrotation Xrotation Yrotation
            JOINT LeftToes
            {
               OFFSET -0.032000 -3.532072 6.799280
               CHANNELS 3 Zrotation Xrotation Yrotation
               End Site
               {
                  OFFSET 0.064000 -0.037960 7.823832
               }
            }
         }
      }
   }
   JOINT RightUpLeg
   {
      OFFSET -7.156640 -6.933656 0.081320
      CHANNELS 3 Zrotation Xrotation Yrotation
      JOINT RightLeg
      {
         OFFSET 0.000000 -35.538158 1.098160
         CHANNELS 3 Zrotation Xrotation Yrotation
         JOINT RightFoot
         {
            OFFSET 0.202840 -33.673920 -1.168472
            CHANNELS 3 Zrotation Xrotation Yrotation
            JOINT RightToes
            {
               OFFSET 0.032000 -3.532072 6.799280
               CHANNELS 3 Zrotation Xrotation Yrotation
               End Site
               {
                  OFFSET -0.064000 -0.109960 7.823832
               }
            }
         }
      }
   }
}
MOTION
Frames: 18
Frame Time: 0.016670
26.397342 61.803741 -99.266623 2.516301 -14.940957 37.506584 8.017405 30.797736 -56.024753 -14.834423 15.576106 44.155465 -3.664155 -21.287569 -18.739959 -16.802518 -43.209556 -34.915934 -142.200304 -44.148666 -99.115027 -6.554186 101.822199 -96.143040 3.695164 -39.657516 -20.515723 -1.724641 37.904821 29.860559 4.001364 -19.259723 35.395239 -14.159588 -47.227999 114.881432 -32.760698 11.329296 6.618599 3.117860 -42.600313 -7.687246 42.997171 65.861615 -106.730585 54.952355 48.066148 -20.362881 -120.931149 -44.927792 -3.743069 -25.898020 15.726717 30.563686 -155.685556 151.718651 60.466367 -63.309857 51.365884 40.405429 4.675318 -22.225232 6.959728
25.861330 60.828036 -99.905747 2.833075 -15.055144 39.713110 11.722132 31.261424 -58.553709 -14.647588 14.887714 43.349182 -6.097564 -21.815117 -18.552568 -17.622487 -44.325322 -34.567874 -145.457621 -49.100140 -101.835587 -9.238195 101.472398 -97.067090 2.923969 -38.803886 -19.993862 -3.954234 39.069372 31.046598 3.891555 -19.426002 34.435536 -13.370363 -47.540015 114.195244 -31.444183 11.463462 6.041626 1.699773 -44.889205 -10.812713 44.000225 68.179297 -111.926242 55.980688 49.468355 -20.268945 -120.896561 -45.159240 -4.115542 -27.631353 15.628545 33.401476 -155.962356 153.584358 66.269521 -64.770301 55.765937 42.150320 12.931111 -13.780386 8.926714
25.201306 59.962853 -100.457552 3.753030 -15.625019 41.489776 14.615585 31.516993 -61.268812 -14.676074 14.385673 42.194709 -8.154689 -21.762359 -18.323511 -19.166665 -45.520827 -34.912471 -148.953407 -52.341768 -104.894077 -10.692466 100.409518 -98.141970 2.005602 -37.571706 -19.471618 -6.509506 40.229087 32.322996 2.883498 -19.462354 33.774579 -13.152351 -47.727784 113.586032 -29.702997 11.619069 5.843100 0.105617 -45.334045 -14.203004 43.639591 69.154258 -114.589770 56.498396 50.259008 -19.921534 -120.357618 -45.314907 -4.626750 -29.453968 15.584093 32.693892 -155.704899 153.913668 74.436884 -63.494128 59.492348 42.881396 6.646582 -12.794877 2.094437
24.085345 58.969406 -100.711382 5.524345 -16.685177 43.276782 16.937375 31.733991 -63.784357 -14.116363 13.940429 41.289924 -9.913553 -22.051826 -16.746289 -20.830228 -47.912770 -33.846494 -154.476968 -59.978070 -109.005742 -13.149950 100.021686 -99.889912 2.673878 -18.035833 -16.946686 -9.194845 42.040361 33.188654 1.694342 -19.092814 32.583636 -13.322488 -47.843658 113.048592 -27.659162 11.913616 5.570521 -0.407542 -44.245477 -16.459506 42.390456 69.649071 -115.845172 56.584951 50.797333 -19.018341 -119.374085 -45.625107 -4.805536 -30.284854 18.231638 25.716098 -160.433398 150.397842 92.069741 -57.272485 62.670619 41.856687 22.717949 -12.554610 6.196480
22.765908 58.080010 -100.708054 8.057248 -17.935284 44.764664 18.219343 32.923947 -65.939152 -12.965899 14.131809 40.624691 -11.401841 -22.543183 -13.958975 -22.470366 -50.021526 -32.742653 -159.190987 -66.656895 -113.270819 -14.564762 99.407632 -102.278408 2.764244 -27.275515 -18.336584 -11.093594 43.828504 35.241034 0.426788 -18.225661 32.551988 -13.705902 -48.244372 113.372534 -25.908318 12.241181 5.417463 -0.350395 -41.935258 -18.325778 40.984318 69.046225 -116.723152 56.434861 50.906592 -17.665058 -118.125622 -45.697831 -5.114240 -29.037272 20.795636 13.624101 -170.219393 145.464192 117.760780 -54.682505 65.005397 41.341834 12.274056 -17.809438 -1.120983
21.216771 57.309307 -100.419291 11.052655 -18.507928 48.263988 19.640002 34.483050 -69.332608 -11.826784 14.388000 38.424763 -12.219710 -21.921982 -11.472050 -22.993045 -52.704274 -32.323676 -161.883215 -71.867845 -118.172545 -11.131441 97.133261 -103.125475 0.821097 -26.152222 -18.964019 -13.415618 44.934199 36.987400 -1.556174 -17.646813 32.953395 -14.233474 -48.841317 111.880636 -24.004334 12.584869 5.391511 -0.407499 -40.320888 -20.006638 39.446330 68.088284 -117.944335 56.349672 49.774655 -15.890821 -116.109678 -45.526944 -6.062362 -29.032931 22.565963 3.519087 -178.382985 140.325635 138.969925 -50.454013 66.571238 40.276888 34.372538 -22.942918 9.123266
19.153915 56.506538 -99.726056 12.198645 -17.054159 52.542531 19.628627 34.708388 -72.342761 -9.777235 12.524233 36.290769 -12.299618 -21.897206 -8.129425 -22.107463 -56.787002 -31.386089 -166.253389 -79.612917 -124.544470 -10.462258 97.279803 -106.135764 0.823380 -34.129707 -21.089124 -15.963025 45.022339 38.499307 -4.723515 -13.744032 35.797441 -14.999664 -52.492012 105.910300 -21.996197 12.990474 5.304140 -0.185218 -39.517238 -24.047675 29.116379 64.474090 -106.787938 54.395435 48.908376 -13.616098 -112.890152 -45.238173 -7.944646 -29.324748 26.130454 -0.610836 -179.412131 140.894727 151.191742 -44.059385 65.556094 39.655880 25.208111 -29.908705 3.874923
16.885938 55.766248 -98.876599 15.395806 -16.951391 57.286327 20.502662 34.390894 -75.435512 -8.633588 12.334622 33.546491 -12.349645 -21.781267 -5.141973 -23.533907 -59.412708 -30.097833 -170.334044 -85.967008 -130.094313 -9.569168 96.709215 -108.263962 0.636018 -32.120303 -20.998404 -17.787725 46.000689 39.936174 -8.445889 -11.092979 37.698891 -15.975445 -54.432021 102.439710 -19.983308 13.414169 5.301207 0.574398 -36.516141 -32.722022 13.452529 60.320297 -86.847877 50.887621 47.465242 -11.612464 -108.753735 -44.190842 -10.955411 -30.990850 30.375654 -1.586616 -177.602964 139.975137 155.620683 -40.202326 66.846754 38.446534 28.908765 -34.011893 3.648759
14.483056 55.047526 -97.906435 19.148304 -18.034829 61.783835 22.334022 34.301558 -78.594556 -7.736571 12.572010 30.367209 -12.549545 -21.375810 -2.458550 -26.008551 -61.640531 -28.716349 -173.492078 -91.287124 -135.636137 -8.838626 95.801073 -109.662833 1.091943 -35.809982 -22.313096 -19.073103 47.080330 41.041794 -12.286963 -9.633250 38.912732 -16.516127 -55.495850 99.577963 -18.139946 13.625996 5.388862 0.870065 -32.655476 -45.708292 -1.155771 56.723553 -66.071753 47.448037 45.812469 -10.188614 -103.990730 -42.353416 -13.988956 -32.562524 34.901037 0.038930 -173.519617 139.441454 156.269551 -37.302887 70.214809 37.953220 28.718842 -37.477774 0.663299
11.701218 54.479584 -96.823214 23.230208 -19.888456 66.860558 24.804428 34.065582 -80.781549 -7.398554 12.320270 27.828445 -13.836392 -20.798273 1.074356 -29.344525 -64.420295 -26.803853 -179.519788 -98.490529 -141.807213 -9.225483 95.779422 -112.009754 1.231923 -33.939138 -21.838613 -19.823352 47.785469 41.795478 -17.624806 -5.931751 42.107112 -17.311502 -58.709581 94.176445 -16.641770 13.532975 5.733508 2.184967 -29.349401 -63.209385 -16.158807 49.827323 -42.025041 42.198264 44.664813 -8.747816 -98.869310 -38.499181 -16.165231 -33.577787 40.008021 3.386180 -167.668098 139.753853 155.184125 -35.454904 75.983867 38.677500 31.305021 -37.893483 -0.034819
8.877885 54.044527 -95.780972 30.423165 -21.956379 75.095082 29.355364 32.941179 -83.144958 -9.189961 12.698786 24.634691 -15.604785 -20.264551 4.319649 -34.437172 -66.174363 -25.538018 -184.616871 -103.432089 -146.536641 -9.117587 95.326737 -112.352473 1.340824 -35.714967 -22.330352 -20.339610 48.789073 41.457001 -22.210903 -4.442463 42.697910 -17.617329 -60.398086 90.594509 -15.570825 13.607540 6.584934 1.923432 -24.568231 -78.182170 -24.860355 43.456952 -25.137500 36.527678 44.098327 -7.891514 -93.866429 -34.502946 -16.880958 -31.023143 44.958743 7.656639 -160.707425 136.716222 157.284039 -36.746807 83.551355 41.739621 31.241798 -36.575011 -2.906972
6.055503 53.748178 -94.633492 33.680390 -23.507305 80.970267 32.947012 31.255489 -85.066625 -9.243341 12.243175 21.914539 -16.552928 -20.179160 7.080622 -37.818826 -67.758741 -25.108124 -187.579985 -106.628918 -150.767765 -9.225330 95.620592 -111.962995 1.538100 -34.607117 -21.894200 -20.753747 50.478496 41.865911 -25.317203 -3.197339 42.689499 -18.099778 -61.398305 88.351024 -14.258295 13.383964 8.780814 3.901165 -22.192596 -92.732891 -27.020000 35.978493 -12.031677 30.951993 45.079160 -6.226010 -82.083868 -21.568254 -4.450802 -28.899883 49.228708 10.386472 -152.472799 139.486820 156.340790 -37.151830 88.563245 44.090008 31.489385 -34.701876 -3.731549
3.022992 53.747558 -93.359479 35.957364 -24.915012 86.138002 35.983151 28.939621 -86.600358 -8.966347 10.848476 19.320148 -17.428063 -20.162797 10.255655 -39.702698 -68.516551 -25.978235 -188.301390 -108.537061 -153.731248 -11.054566 94.999517 -106.606467 -1.707763 -37.615720 -25.315372 -21.960730 51.630267 42.429757 -28.895457 -2.337440 42.084303 -19.272190 -61.480848 88.095029 3.411171 2.432125 17.858990 7.059465 -19.411613 -105.791345 -26.048337 27.384254 -1.167749 25.559901 46.316729 -4.017447 -82.003415 -20.423181 -8.496030 -26.123667 51.305748 10.799148 -144.712543 141.045893 152.996360 -36.962795 91.633586 45.512539 54.219165 -29.900980 24.668577
0.090615 53.822636 -92.075785 36.245960 -25.657945 89.590116 37.939314 26.597165 -86.618355 -8.817515 10.257966 18.124218 -17.668907 -20.498900 12.970788 -41.975665 -68.728396 -25.490754 -189.037575 -110.230818 -155.212661 -11.824698 94.743678 -104.700824 -2.856137 -38.061496 -26.541777 -22.475461 53.966534 42.527206 -29.906636 -1.528632 40.931620 -19.541149 -62.716115 87.745815 -5.793178 5.870566 17.695483 11.701968 -19.080449 -114.987423 -22.298119 19.273580 7.369301 21.125323 48.035115 -0.148691 -79.545640 -0.142492 8.859154 -23.587773 52.522041 7.861016 -139.865786 143.680652 145.497441 -38.208239 91.907633 43.453158 42.260470 -30.762154 8.376462
-2.702511 53.990611 -90.774220 35.770944 -26.712177 90.580466 38.982710 23.890125 -86.077363 -8.515764 9.129799 17.346119 -17.644494 -20.683560 15.292802 -43.328743 -68.508997 -25.791687 -189.412702 -111.386370 -155.852814 -12.448325 95.768644 -105.035981 -2.339671 -39.066274 -27.346681 -22.543932 55.866101 43.203313 -31.234189 -0.819447 41.072605 -19.982821 -63.384333 87.294503 -1.011735 3.847975 20.961191 16.926380 -19.826690 -122.173233 -18.728719 12.054783 12.833897 15.902980 49.615191 2.742397 -73.825568 -3.249943 3.356614 -20.635038 52.566669 2.524608 -137.736680 144.560448 134.755930 -40.865425 89.657066 38.220482 47.447398 -28.924304 14.536350
-5.530028 54.392051 -89.412621 33.610439 -27.315516 89.248251 39.223171 23.300738 -83.132336 -8.412230 8.467609 17.779150 -17.527527 -21.343477 16.222556 -43.603036 -68.977042 -25.768456 -190.176618 -112.502074 -155.530320 -12.598823 96.039829 -105.731322 -1.432468 -38.661958 -26.918028 -21.173802 56.573398 42.831006 -31.341566 -1.025836 40.754376 -20.435014 -61.553207 90.131962 -11.863997 8.352159 16.881490 22.355055 -21.411340 -126.364442 -15.380025 5.479579 20.437365 13.058140 50.583503 7.569846 -69.442656 5.573023 9.230809 -17.874778 50.942570 -5.060857 -138.198619 145.118994 120.972732 -44.474862 84.687782 30.028797 44.303073 -28.722393 10.237590
-8.175761 54.871272 -88.073586 31.616618 -27.831412 86.703145 38.895612 24.202646 -78.848120 -8.100797 8.546366 18.554817 -17.399383 -22.200459 16.091815 -42.989064 -69.761879 -26.384256 -191.313967 -113.277642 -154.463089 -12.657533 96.289159 -106.642899 -0.353539 -38.831470 -26.484048 -19.127894 56.917718 41.502965 -31.675429 -0.884392 39.984740 -21.077243 -60.616740 91.920788 -11.731416 8.417999 16.142037 27.132944 -22.172239 -126.995073 -12.967786 1.221801 28.411779 2.519428 50.885077 13.828970 -51.564332 7.518495 6.516721 -15.017704 48.107679 -13.244766 -139.772827 143.034024 106.687316 -48.056234 77.560958 21.311599 45.264910 -28.633229 12.729999
-10.651879 55.405587 -86.727246 29.485752 -28.006118 82.998840 37.619094 25.018522 -74.139600 -8.148672 8.496748 20.140911 -17.922322 -22.726372 16.150479 -42.066179 -70.260565 -26.558557 -192.200144 -113.919598 -153.351776 -12.196468 96.320420 -107.076117 0.606557 -38.255514 -25.617424 -17.314224 57.657984 39.867664 -31.859151 -0.838154 39.156334 -21.392972 -60.509568 92.865923 -17.403792 10.497835 15.174653 31.500505 -22.828253 -125.212544 -11.020263 -2.658469 35.706323 -7.645800 49.708037 20.140631 -34.258374 13.017115 5.969229 -12.714642 44.575635 -20.318112 -143.224723 140.668880 93.055576 -50.830066 69.098845 13.293879 43.916112 -28.384256 13.347346
